<svg width="85" height="92" viewBox="0 0 85 92" fill="none" xmlns="http://www.w3.org/2000/svg">
<path d="M6.94444 78.0606C10.7798 78.0606 13.8889 81.181 13.8889 85.0303C13.8889 88.8796 10.7798 92 6.94444 92C3.10913 92 -1.36399e-07 88.8796 -3.04655e-07 85.0303C-4.72912e-07 81.181 3.10913 78.0606 6.94444 78.0606Z" fill="#000080"/>
<path d="M6.94444 19.5152C10.7798 19.5152 13.8889 22.6356 13.8889 26.4848C13.8889 30.3341 10.7798 33.4545 6.94444 33.4545C3.10913 33.4545 -2.6955e-06 30.3341 -2.86376e-06 26.4848C-3.03201e-06 22.6356 3.10913 19.5152 6.94444 19.5152Z" fill="#000080"/>
<path d="M24.7222 28.9939C28.5575 28.9939 31.6667 32.1144 31.6667 35.9636C31.6667 39.8129 28.5575 42.9333 24.7222 42.9333C20.8869 42.9333 17.7778 39.8129 17.7778 35.9636C17.7778 32.1144 20.8869 28.9939 24.7222 28.9939Z" fill="#004A80"/>
<path d="M42.5 19.5152C46.3353 19.5151 49.4444 22.6356 49.4444 26.4848C49.4444 30.3341 46.3353 33.4545 42.5 33.4545C38.6647 33.4545 35.5556 30.3341 35.5556 26.4848C35.5556 22.6356 38.6647 19.5152 42.5 19.5152Z" fill="#008080"/>
<path d="M24.7222 68.0242C28.5575 68.0242 31.6667 71.1447 31.6667 74.9939C31.6667 78.8432 28.5575 81.9636 24.7222 81.9636C20.8869 81.9636 17.7778 78.8432 17.7778 74.9939C17.7778 71.1447 20.8869 68.0242 24.7222 68.0242Z" fill="#004A80"/>
<path d="M42.5 58.5455C46.3353 58.5455 49.4444 61.6659 49.4444 65.5151C49.4444 69.3644 46.3353 72.4848 42.5 72.4848C38.6647 72.4848 35.5556 69.3644 35.5556 65.5152C35.5556 61.6659 38.6647 58.5455 42.5 58.5455Z" fill="#008080"/>
<path d="M60.2778 48.7879C64.1131 48.7879 67.2222 51.9083 67.2222 55.7576C67.2222 59.6068 64.1131 62.7273 60.2778 62.7273C56.4425 62.7273 53.3333 59.6068 53.3333 55.7576C53.3333 51.9083 56.4425 48.7879 60.2778 48.7879Z" fill="#00B680"/>
<path d="M6.94444 58.5455C10.7798 58.5455 13.8889 61.6659 13.8889 65.5152C13.8889 69.3644 10.7798 72.4848 6.94444 72.4848C3.10913 72.4848 -9.89433e-07 69.3644 -1.15769e-06 65.5152C-1.32595e-06 61.6659 3.10913 58.5455 6.94444 58.5455Z" fill="#000080"/>
<path d="M6.94444 -3.03551e-07C10.7798 -4.71198e-07 13.8889 3.12044 13.8889 6.9697C13.8889 10.819 10.7798 13.9394 6.94444 13.9394C3.10913 13.9394 -3.54854e-06 10.819 -3.71679e-06 6.9697C-3.88505e-06 3.12044 3.10913 -1.35905e-07 6.94444 -3.03551e-07Z" fill="#000080"/>
<path d="M24.7222 9.47879C28.5575 9.47879 31.6667 12.5992 31.6667 16.4485C31.6667 20.2977 28.5575 23.4182 24.7222 23.4182C20.8869 23.4182 17.7778 20.2977 17.7778 16.4485C17.7778 12.5992 20.8869 9.47879 24.7222 9.47879Z" fill="#004A80"/>
<path d="M24.7222 48.5091C28.5575 48.5091 31.6667 51.6295 31.6667 55.4788C31.6667 59.328 28.5575 62.4485 24.7222 62.4485C20.8869 62.4485 17.7778 59.328 17.7778 55.4788C17.7778 51.6295 20.8869 48.5091 24.7222 48.5091Z" fill="#004A80"/>
<path d="M42.5 39.0303C46.3353 39.0303 49.4444 42.1507 49.4444 46C49.4444 49.8493 46.3353 52.9697 42.5 52.9697C38.6647 52.9697 35.5556 49.8493 35.5556 46C35.5556 42.1507 38.6647 39.0303 42.5 39.0303Z" fill="#008080"/>
<path d="M60.2778 29.2727C64.1131 29.2727 67.2222 32.3932 67.2222 36.2424C67.2222 40.0917 64.1131 43.2121 60.2778 43.2121C56.4425 43.2121 53.3333 40.0917 53.3333 36.2424C53.3333 32.3932 56.4425 29.2727 60.2778 29.2727Z" fill="#00B680"/>
<path d="M78.0556 38.7515C81.8909 38.7515 85 41.872 85 45.7212C85 49.5705 81.8909 52.6909 78.0556 52.6909C74.2202 52.6909 71.1111 49.5705 71.1111 45.7212C71.1111 41.872 74.2202 38.7515 78.0556 38.7515Z" fill="#00EC80"/>
</svg>
